# xmcd CD database file
#
# Track frame offsets:
#	150
#	15814
#	26424
#	39244
#	49934
#	63879
#	73454
#	83701
#	100117
#	129436
#	144803
#	154925
#	179195
#	199713
#	212454
#	228096
#	249695
#	267663
#	282870
#
# Disc length: 3906 seconds
#
# Revision: 2
# Processed by: cddbd v1.5.1PL2 Copyright (c) Steve Scherf et al.
# Submitted via: CDex 1.51
#
DISCID=050f4013
DTITLE=Hermann Lammers Meyer - Aus dem Leben
DYEAR=2005
DGENRE=Country
TTITLE0=Sie tanzt allein
TTITLE1=Ich weiß etwas, was keiner weiß
TTITLE2=Über dem steht die Liebe
TTITLE3=Hey Hey Trucker Lady
TTITLE4=Der Beweis
TTITLE5=Der Sänger
TTITLE6=Geh nach Haus (Spezial Gast: Kimmie Rhodes)
TTITLE7=Marie, oh Maria (dat Ems-Insel-Lied up platt)
TTITLE8=Tommy und der Nikolaus
TTITLE9=Familienmann
TTITLE10=Der Geburtstag
TTITLE11=Ganz und gar
TTITLE12=Liebe Mama
TTITLE13=Uuh auf Wiedersehn
TTITLE14=Lied für Eva
TTITLE15=Bauer Barnes Mühle
TTITLE16=Ich bin auf Diät
TTITLE17=All das ist Amerika (der Harley Song)
TTITLE18=Fernfahrer Hermann
EXTD=YEAR: 2005
EXTT0=
EXTT1=
EXTT2=
EXTT3=
EXTT4=
EXTT5=
EXTT6=
EXTT7=
EXTT8=
EXTT9=
EXTT10=
EXTT11=
EXTT12=
EXTT13=
EXTT14=
EXTT15=
EXTT16=
EXTT17=
EXTT18=
PLAYORDER=
